<?xml version="1.0"?>
<svg xmlns="http://www.w3.org/2000/svg" xmlns:xlink="http://www.w3.org/1999/xlink" version="1.1" id="Capa_1" x="0px" y="0px" viewBox="0 0 512.008 512.008" style="enable-background:new 0 0 512.008 512.008;" xml:space="preserve" width="512px" height="512px" class=""><g><g>
	<path d="M145.508,325.489c-41.355,0-75,33.645-75,75s33.645,75,75,75c41.355,0,74.999-33.645,74.999-75   S186.863,325.489,145.508,325.489z M145.508,415.489c-8.262,0-15-6.738-15-15c0-8.262,6.738-15,15-15c8.262,0,15,6.738,15,15   C160.508,408.751,153.77,415.489,145.508,415.489z" data-original="#000000" class="active-path" data-old_color="#000000" fill="#EB7D16"/>
	<path d="M452.008,355.489c-33.084,0-60,26.916-60,60s26.916,60,60,60s60-26.916,60-60S485.092,355.489,452.008,355.489z" data-original="#000000" class="active-path" data-old_color="#000000" fill="#EB7D16"/>
	<path d="M449.008,325.545v-42.055c0-8.284-6.716-15-15-15h-116.24l107.495,61.057C432.803,327.195,440.768,325.816,449.008,325.545   z" data-original="#000000" class="active-path" data-old_color="#000000" fill="#EB7D16"/>
	<path d="M394.315,346.47L202.416,237.472c-2.257-1.281-4.808-1.956-7.403-1.957l-49.644-0.017l-71.66-189.29   c-2.208-5.832-7.793-9.689-14.028-9.689H15c-8.284,0-15,6.716-15,15s6.716,15,15,15h34.32l70.688,186.719v45.389   c8.167-2.045,16.709-3.138,25.501-3.138c57.897,0,104.999,47.103,104.999,105c0,19.32-5.251,37.433-14.391,53h134.319   c-5.403-11.551-8.428-24.428-8.428-38C362.008,387.799,374.582,362.993,394.315,346.47z" data-original="#000000" class="active-path" data-old_color="#000000" fill="#EB7D16"/>
</g></g> </svg>
