<?xml version="1.0"?>
<svg xmlns="http://www.w3.org/2000/svg" xmlns:xlink="http://www.w3.org/1999/xlink" version="1.1" id="Capa_1" x="0px" y="0px" viewBox="0 0 382.88 382.88" style="enable-background:new 0 0 382.88 382.88;" xml:space="preserve" width="512px" height="512px"><g><g>
	<g>
		<path d="M177.68,140.236l-21.84-16h-42.8c-4.418,0-8,3.582-8,8v41.76h110.4c0.347-1.75,0.856-3.464,1.52-5.12L177.68,140.236z" data-original="#000000" class="active-path" data-old_color="#000000" fill="#EB7D16"/>
	</g>
</g><g>
	<g>
		<path d="M271.44,189.996c-5.809,15.044-22.713,22.531-37.758,16.722c-7.683-2.966-13.756-9.039-16.722-16.722H106.48    c7.04,40.96,41.12,56,70.72,56h133.6c44.8,0,65.2-27.52,70.56-56H271.44z" data-original="#000000" class="active-path" data-old_color="#000000" fill="#EB7D16"/>
	</g>
</g><g>
	<g>
		<path d="M244,166.236c-7.334,0-13.28,5.946-13.28,13.28c0,7.334,5.946,13.28,13.28,13.28s13.28-5.946,13.28-13.28    C257.194,172.218,251.298,166.323,244,166.236z" data-original="#000000" class="active-path" data-old_color="#000000" fill="#EB7D16"/>
	</g>
</g><g>
	<g>
		<path d="M310.72,41.676H244c-4.418,0-8,3.582-8,8v74.56h-26.72L64.24,13.036c-1.396-1.084-3.112-1.674-4.88-1.68H8    c-4.418,0-8,3.582-8,8s3.582,8,8,8h48.72l126.32,96.88l2.16,1.6l41.36,30.32c4.842-3.684,10.718-5.755,16.8-5.92h0.72    c14.104,0.039,26.177,10.127,28.72,24h110.08v-60.4C382.88,60.556,344,41.676,310.72,41.676z" data-original="#000000" class="active-path" data-old_color="#000000" fill="#EB7D16"/>
	</g>
</g><g>
	<g>
		<g>
			<path d="M371.519,308.636c-3.995-26.719-26.915-46.501-53.923-46.558c-27.135-0.012-50.187,19.866-54.155,46.718h-39.12     c-4.418-29.896-32.236-50.55-62.132-46.132s-50.55,32.236-46.132,62.132s32.236,50.55,62.132,46.132     c23.865-3.527,42.605-22.267,46.132-46.132h39.12c4.462,29.845,32.274,50.422,62.119,45.959     C355.404,366.293,375.981,338.481,371.519,308.636z M170.24,330.476c-7.555,0-13.68-6.125-13.68-13.68     c0-7.555,6.125-13.68,13.68-13.68s13.68,6.125,13.68,13.68S177.795,330.476,170.24,330.476z M317.68,330.476     c-7.555,0-13.68-6.125-13.68-13.68c0-7.555,6.125-13.68,13.68-13.68s13.68,6.125,13.68,13.68S325.235,330.476,317.68,330.476z" data-original="#000000" class="active-path" data-old_color="#000000" fill="#EB7D16"/>
			<path d="M317.52,262.076c0.025,0,0.05,0.002,0.075,0.002c0.028,0,0.056-0.002,0.085-0.002H317.52z" data-original="#000000" class="active-path" data-old_color="#000000" fill="#EB7D16"/>
		</g>
	</g>
</g></g> </svg>
